<svg xmlns="http://www.w3.org/2000/svg" version="1.1" xmlns:xlink="http://www.w3.org/1999/xlink" xmlns:svgjs="http://svgjs.dev/svgjs" width="1000" height="540" viewBox="0 0 1000 540"><g transform="matrix(1,0,0,1,-0.6059629635732904,0.6240701102009893)"><svg viewBox="0 0 396 214" data-background-color="#ffffff" preserveAspectRatio="xMidYMid meet" height="540" width="1000" xmlns="http://www.w3.org/2000/svg" xmlns:xlink="http://www.w3.org/1999/xlink"><g id="tight-bounds" transform="matrix(1,0,0,1,0.23996133357502458,-0.24731667330188145)"><svg viewBox="0 0 395.52 214.49463334660376" height="214.49463334660376" width="395.52"><g><svg viewBox="0 0 395.52000000000004 214.4946333466038" height="214.49463334660376" width="395.52"><g transform="matrix(1,0,0,1,0,110.41002859881633)"><svg viewBox="0 0 395.52000000000004 104.08460474778747" height="104.08460474778747" width="395.52000000000004"><g><svg viewBox="0 0 395.52000000000004 104.08460474778747" height="104.08460474778747" width="395.52000000000004"><g><svg viewBox="0 0 395.52000000000004 104.08460474778747" height="104.08460474778747" width="395.52000000000004"><g transform="matrix(1,0,0,1,0,0)"><svg width="395.52000000000004" viewBox="1.5362622737884521 -20.964500427246094 185.08470153808594 48.706687927246094" height="104.08460474778747" data-palette-color="#398378"><path d="M20.136 19.353l-13.186-3.791c-1.339-0.385-2.473-0.94-3.402-1.665-0.929-0.725-1.543-1.678-1.841-2.861-0.303-1.19-0.202-2.663 0.302-4.418v0l7.931-27.582 3.749 1.077-7.785 27.073c-0.324 1.128-0.38 2.034-0.168 2.72 0.212 0.685 0.6 1.22 1.162 1.603 0.569 0.386 1.18 0.672 1.834 0.861v0l12.388 3.562zM33.66 22.128v0c-0.772-0.15-1.573-0.38-2.402-0.691-0.836-0.312-1.593-0.768-2.271-1.368-0.686-0.595-1.179-1.394-1.48-2.396-0.301-1.002-0.299-2.289 0.006-3.859v0l4.179-21.518c0.267-1.374 0.688-2.478 1.264-3.31 0.576-0.832 1.248-1.445 2.018-1.839 0.777-0.399 1.605-0.639 2.483-0.72 0.877-0.074 1.731-0.031 2.562 0.131v0c1.97 0.417 3.798 0.812 5.484 1.187 1.686 0.375 3.283 0.736 4.791 1.084 1.509 0.341 2.974 0.683 4.395 1.027v0l-0.595 3.062-13.802-2.68c-1.243-0.242-2.297-0.096-3.161 0.435-0.869 0.524-1.447 1.522-1.733 2.995v0l-1.618 8.334 15.727 3.309-0.568 2.925-15.821-2.828-1.611 8.295c-0.229 1.178-0.203 2.11 0.078 2.796 0.288 0.687 0.747 1.191 1.377 1.511 0.637 0.321 1.306 0.549 2.007 0.685v0l13.605 2.642-0.596 3.073c-1.484-0.193-3.04-0.414-4.67-0.663-1.623-0.247-3.245-0.511-4.868-0.792-1.616-0.28-3.21-0.555-4.78-0.827zM57.733 25.588l-3.986-0.337 15.283-34.767 4.962 0.42 9.23 36.838-3.986-0.337-2.734-10.517-14.398-1.217zM71.223-5.898l-7.856 18.143 12.455 1.053zM93.84 27.625l-3.9 0.061-0.561-35.925 14.158-0.222c1.167-0.018 2.305 0.101 3.416 0.357 1.111 0.263 2.122 0.76 3.034 1.493 0.905 0.733 1.628 1.788 2.17 3.166 0.542 1.372 0.83 3.181 0.864 5.427v0c0.031 1.953-0.154 3.56-0.554 4.819-0.407 1.26-0.945 2.262-1.613 3.006-0.675 0.744-1.407 1.292-2.195 1.645-0.795 0.352-1.564 0.601-2.309 0.746v0l7.608 15.113-3.96 0.062-7.209-14.579c-0.52 0.008-1.17 0.002-1.95-0.02-0.78-0.021-1.611-0.025-2.491-0.011-0.88 0.014-1.733 0.01-2.56-0.01-0.834-0.02-1.561-0.026-2.181-0.016v0zM93.333-4.791l0.228 14.548 9.668-0.151c0.847-0.013 1.625-0.122 2.336-0.326 0.717-0.205 1.348-0.581 1.892-1.13 0.545-0.549 0.973-1.312 1.285-2.29 0.305-0.978 0.445-2.251 0.42-3.817v0c-0.023-1.493-0.202-2.7-0.537-3.622-0.341-0.928-0.802-1.638-1.383-2.129-0.575-0.498-1.22-0.831-1.936-1-0.723-0.169-1.491-0.247-2.304-0.234v0zM125.404 25.946l-3.834 0.45-4.196-35.684 3.158-0.371 22.027 26.851-3.415-29.04 3.834-0.451 4.196 35.685-3.148 0.37-22.037-26.85zM159.024 20.694l-3.805 0.857-6.311-28.007c-0.308-1.366-0.365-2.545-0.172-3.539 0.193-0.993 0.563-1.825 1.109-2.495 0.551-0.678 1.213-1.23 1.984-1.657 0.773-0.42 1.573-0.723 2.399-0.909v0c1.406-0.283 2.928-0.592 4.568-0.927 1.638-0.342 3.331-0.682 5.079-1.022 1.74-0.344 3.448-0.637 5.123-0.877v0l0.675 2.995-13.755 3.099c-1.275 0.287-2.181 0.86-2.719 1.72-0.546 0.854-0.664 1.964-0.357 3.33v0l2.049 9.092 15.732-3.289 0.655 2.907-15.624 3.767zM186.621 13.704l-3.745 1.09-10.043-34.498 3.745-1.09z" opacity="1" transform="matrix(1,0,0,1,0,0)" fill="#398378" class="undefined-text-0" data-fill-palette-color="primary" id="text-0"></path></svg></g></svg></g></svg></g></svg></g><g transform="matrix(1,0,0,1,145.7176976261063,0)"><svg viewBox="0 0 104.08460474778747 104.08460474778747" height="104.08460474778747" width="104.08460474778747"><g><svg xmlns="http://www.w3.org/2000/svg" xmlns:xlink="http://www.w3.org/1999/xlink" version="1.1" x="0" y="0" viewBox="0 0 48 48" enable-background="new 0 0 48 48" xml:space="preserve" height="104.08460474778747" width="104.08460474778747" class="icon-icon-0" data-fill-palette-color="accent" id="icon-0"><g fill="#31c48d" data-fill-palette-color="accent"><polygon points="48,43.684 43.685,39.368 43.685,42.684 5.317,42.684 5.317,4.316 8.632,4.316 4.315,0 0,4.316 3.315,4.316    3.315,44.686 43.685,44.686 43.685,48  " fill="#31c48d" data-fill-palette-color="accent"></polygon><polygon points="24.566,1.469 18.132,10.049 31,10.049  " fill="#31c48d" data-fill-palette-color="accent"></polygon><polygon points="19.163,39.277 10.065,30.177 8.547,40.796  " fill="#31c48d" data-fill-palette-color="accent"></polygon><polygon points="40.588,40.795 39.067,30.177 29.969,39.277  " fill="#31c48d" data-fill-palette-color="accent"></polygon><path d="M24.566 35.854c6.586 0 11.943-5.357 11.943-11.942 0-6.585-5.357-11.943-11.943-11.943s-11.943 5.358-11.943 11.943C12.623 30.497 17.98 35.854 24.566 35.854zM24.071 24.581c-2.321-0.909-3.755-1.955-3.755-3.937 0-1.89 1.343-3.321 3.438-3.664v-2.3h1.409v2.209c1.365 0.045 2.3 0.41 2.96 0.796l-0.57 1.501c-0.477-0.271-1.411-0.773-2.867-0.773-1.752 0-2.412 1.047-2.412 1.956 0 1.184 0.841 1.776 2.821 2.593 2.346 0.957 3.527 2.142 3.527 4.167 0 1.798-1.252 3.481-3.594 3.868v2.369h-1.436v-2.301c-1.319-0.021-2.686-0.433-3.482-1l0.548-1.525c0.819 0.547 2.002 0.979 3.276 0.979 1.616 0 2.706-0.934 2.706-2.23C26.641 26.039 25.756 25.264 24.071 24.581z" fill="#31c48d" data-fill-palette-color="accent"></path></g></svg></g></svg></g><g></g></svg></g><defs></defs></svg><rect width="395.52" height="214.49463334660376" fill="none" stroke="none" visibility="hidden"></rect></g></svg></g></svg>